<svg width="224" height="59" viewBox="0 0 224 59" fill="none" xmlns="http://www.w3.org/2000/svg">
<path d="M25.3779 12.7938C38.4088 12.7938 48.7557 22.6877 48.7559 34.6336C48.7559 46.5797 38.4089 56.4744 25.3779 56.4744C12.347 56.4743 2 46.5796 2 34.6336C2.00019 22.6878 12.3471 12.7939 25.3779 12.7938Z" stroke="#C01B1B" stroke-width="4"/>
<path d="M53.5906 3.45792C53.2414 1.23694 51.221 -0.290374 49.0781 0.0465765L14.1563 5.5375C12.0133 5.87445 10.5592 7.94806 10.9084 10.169C11.2576 12.39 13.2779 13.9173 15.4209 13.5804L46.4625 8.69956L51.521 40.8711C51.8702 43.0921 53.8905 44.6194 56.0335 44.2824C58.1765 43.9455 59.6306 41.8719 59.2814 39.6509L53.5906 3.45792ZM25.3782 38.7662L28.569 41.1783L52.9012 6.4802L49.7104 4.06802L46.5196 1.65584L22.1873 36.354L25.3782 38.7662Z" fill="#C01B1B"/>
<line y1="-1.5" x2="11.4354" y2="-1.5" transform="matrix(0.892443 0.45116 -0.424576 0.905392 15.24 29.3357)" stroke="#C01B1B" stroke-width="3"/>
<ellipse cx="25.3781" cy="34.6339" rx="6.04241" ry="5.75092" fill="#C01B1B"/>
<path d="M67.3235 22.7953L68.6189 15.1589H98.9598L97.6644 22.7953H87.1644L82.6644 50.068H73.3235L77.8235 22.7953H67.3235ZM96.8675 50.068L101.231 23.8862H110.64L106.277 50.068H96.8675ZM106.345 21.1589C105.072 21.1589 104.044 20.7385 103.26 19.8976C102.475 19.0453 102.186 18.0339 102.39 16.8635C102.595 15.6703 103.22 14.6589 104.265 13.8294C105.311 12.9885 106.47 12.568 107.743 12.568C109.027 12.568 110.049 12.9885 110.811 13.8294C111.572 14.6589 111.856 15.6703 111.663 16.8635C111.481 18.0339 110.868 19.0453 109.822 19.8976C108.788 20.7385 107.629 21.1589 106.345 21.1589ZM111.139 50.068L115.502 23.8862H124.434L123.616 28.8635H123.889C124.696 27.2271 125.838 25.9317 127.315 24.9771C128.792 24.0226 130.446 23.5453 132.275 23.5453C134.105 23.5453 135.605 24.0339 136.775 25.0112C137.946 25.9771 138.537 27.2612 138.548 28.8635H138.821C139.525 27.2612 140.679 25.9771 142.281 25.0112C143.883 24.0339 145.662 23.5453 147.616 23.5453C150.105 23.5453 151.997 24.3521 153.292 25.9658C154.599 27.5794 155.025 29.7271 154.571 32.4089L151.639 50.068H142.23L144.821 34.7953C144.98 33.6476 144.821 32.7498 144.343 32.1021C143.866 31.443 143.139 31.1135 142.162 31.1135C141.196 31.1135 140.377 31.443 139.707 32.1021C139.048 32.7498 138.639 33.6476 138.48 34.7953L135.889 50.068H126.889L129.48 34.7953C129.639 33.6476 129.48 32.7498 129.002 32.1021C128.525 31.443 127.798 31.1135 126.821 31.1135C126.184 31.1135 125.605 31.2612 125.082 31.5567C124.571 31.8521 124.144 32.2783 123.804 32.8351C123.474 33.3805 123.252 34.0339 123.139 34.7953L120.548 50.068H111.139ZM168.689 50.5453C165.893 50.5453 163.575 50.0112 161.734 48.943C159.893 47.8635 158.598 46.318 157.848 44.3067C157.098 42.2839 156.961 39.8635 157.439 37.0453C157.893 34.3408 158.831 31.9771 160.251 29.9544C161.683 27.9317 163.484 26.3578 165.654 25.2328C167.836 24.1078 170.279 23.5453 172.984 23.5453C174.961 23.5453 176.694 23.8521 178.183 24.4658C179.683 25.0794 180.904 25.9714 181.848 27.1419C182.791 28.3123 183.427 29.7271 183.757 31.3862C184.098 33.0339 184.098 34.8976 183.757 36.9771L183.416 39.1589H160.029L160.848 33.9771H175.575C175.689 33.2271 175.615 32.568 175.353 31.9998C175.103 31.4203 174.7 30.9714 174.143 30.6533C173.598 30.3237 172.939 30.1589 172.166 30.1589C171.393 30.1589 170.666 30.3237 169.984 30.6533C169.314 30.9828 168.74 31.443 168.262 32.0339C167.796 32.6248 167.484 33.318 167.325 34.1135L166.302 39.568C166.166 40.4089 166.217 41.1589 166.456 41.818C166.694 42.4771 167.109 42.9942 167.7 43.3692C168.291 43.7442 169.052 43.9317 169.984 43.9317C170.62 43.9317 171.223 43.8464 171.791 43.676C172.37 43.4942 172.882 43.2328 173.325 42.8919C173.779 42.5396 174.143 42.1135 174.416 41.6135H183.007C182.393 43.4317 181.421 45.0112 180.092 46.3521C178.774 47.6817 177.149 48.7158 175.217 49.4544C173.296 50.1817 171.12 50.5453 168.689 50.5453Z" fill="#2B4C93"/>
<path d="M204.743 15.1589L198.948 50.068H189.47L195.266 15.1589H204.743ZM223.553 23.8862L222.394 30.7044H205.144L206.303 23.8862H223.553ZM210.666 17.6135H220.076L216.087 41.6476C216.03 42.0112 216.041 42.318 216.121 42.568C216.201 42.8067 216.36 42.9885 216.598 43.1135C216.848 43.2271 217.178 43.2839 217.587 43.2839C217.86 43.2839 218.195 43.2498 218.593 43.1817C218.99 43.1021 219.291 43.0453 219.496 43.0112L219.769 49.6248C219.291 49.7612 218.649 49.9146 217.843 50.0851C217.047 50.2669 216.121 50.3862 215.064 50.443C212.86 50.5453 211.064 50.3123 209.678 49.7442C208.303 49.176 207.348 48.2896 206.814 47.0851C206.291 45.8692 206.201 44.3521 206.541 42.5339L210.666 17.6135Z" fill="#C01B1B"/>
</svg>
