<svg width="240" height="77" viewBox="0 0 240 77" fill="none" xmlns="http://www.w3.org/2000/svg">
<rect width="83.2162" height="76.184" rx="2" fill="#2B4C93"/>
<path d="M35.5656 22.0028C48.5964 22.0028 58.9433 31.8967 58.9435 43.8426C58.9435 55.7887 48.5966 65.6834 35.5656 65.6834C22.5346 65.6833 12.1876 55.7886 12.1876 43.8426C12.1878 31.8968 22.5348 22.0029 35.5656 22.0028Z" stroke="#C01B1B" stroke-width="4"/>
<path d="M63.7782 12.6669C63.429 10.4459 61.4087 8.91863 59.2657 9.25558L24.3439 14.7465C22.2009 15.0834 20.7468 17.1571 21.096 19.378C21.4452 21.599 23.4655 23.1263 25.6085 22.7894L56.6501 17.9086L61.7086 50.0801C62.0578 52.3011 64.0781 53.8284 66.2211 53.4914C68.3641 53.1545 69.8182 51.0809 69.469 48.8599L63.7782 12.6669ZM35.5658 47.9752L38.7566 50.3873L63.0888 15.6892L59.898 13.277L56.7072 10.8648L32.375 45.563L35.5658 47.9752Z" fill="#C01B1B"/>
<line y1="-1.5" x2="11.4354" y2="-1.5" transform="matrix(0.892443 0.45116 -0.424576 0.905392 25.4276 38.5447)" stroke="#C01B1B" stroke-width="3"/>
<ellipse cx="35.5657" cy="43.8429" rx="6.04241" ry="5.75092" fill="#C01B1B"/>
<path d="M86.8298 32.0043L88.1253 24.3679H118.466L117.171 32.0043H106.671L102.171 59.277H92.8298L97.3298 32.0043H86.8298ZM116.374 59.277L120.737 33.0952H130.147L125.783 59.277H116.374ZM125.851 30.3679C124.578 30.3679 123.55 29.9475 122.766 29.1066C121.982 28.2543 121.692 27.2429 121.897 26.0725C122.101 24.8793 122.726 23.8679 123.772 23.0384C124.817 22.1975 125.976 21.777 127.249 21.777C128.533 21.777 129.556 22.1975 130.317 23.0384C131.078 23.8679 131.362 24.8793 131.169 26.0725C130.987 27.2429 130.374 28.2543 129.328 29.1066C128.294 29.9475 127.135 30.3679 125.851 30.3679ZM130.645 59.277L135.009 33.0952H143.941L143.122 38.0725H143.395C144.202 36.4361 145.344 35.1407 146.821 34.1861C148.299 33.2316 149.952 32.7543 151.782 32.7543C153.611 32.7543 155.111 33.2429 156.282 34.2202C157.452 35.1861 158.043 36.4702 158.054 38.0725H158.327C159.032 36.4702 160.185 35.1861 161.787 34.2202C163.389 33.2429 165.168 32.7543 167.122 32.7543C169.611 32.7543 171.503 33.5611 172.799 35.1748C174.105 36.7884 174.532 38.9361 174.077 41.6179L171.145 59.277H161.736L164.327 44.0043C164.486 42.8566 164.327 41.9588 163.85 41.3111C163.372 40.652 162.645 40.3225 161.668 40.3225C160.702 40.3225 159.884 40.652 159.213 41.3111C158.554 41.9588 158.145 42.8566 157.986 44.0043L155.395 59.277H146.395L148.986 44.0043C149.145 42.8566 148.986 41.9588 148.509 41.3111C148.032 40.652 147.304 40.3225 146.327 40.3225C145.691 40.3225 145.111 40.4702 144.588 40.7657C144.077 41.0611 143.651 41.4872 143.31 42.0441C142.98 42.5895 142.759 43.2429 142.645 44.0043L140.054 59.277H130.645ZM188.195 59.7543C185.399 59.7543 183.081 59.2202 181.24 58.152C179.399 57.0725 178.104 55.527 177.354 53.5157C176.604 51.4929 176.468 49.0725 176.945 46.2543C177.399 43.5498 178.337 41.1861 179.757 39.1634C181.189 37.1407 182.99 35.5668 185.161 34.4418C187.343 33.3168 189.786 32.7543 192.49 32.7543C194.468 32.7543 196.201 33.0611 197.689 33.6748C199.189 34.2884 200.411 35.1804 201.354 36.3509C202.297 37.5213 202.934 38.9361 203.263 40.5952C203.604 42.2429 203.604 44.1066 203.263 46.1861L202.922 48.3679H179.536L180.354 43.1861H195.081C195.195 42.4361 195.121 41.777 194.86 41.2088C194.61 40.6293 194.206 40.1804 193.649 39.8623C193.104 39.5327 192.445 39.3679 191.672 39.3679C190.899 39.3679 190.172 39.5327 189.49 39.8623C188.82 40.1918 188.246 40.652 187.769 41.2429C187.303 41.8338 186.99 42.527 186.831 43.3225L185.809 48.777C185.672 49.6179 185.723 50.3679 185.962 51.027C186.201 51.6861 186.615 52.2032 187.206 52.5782C187.797 52.9532 188.559 53.1407 189.49 53.1407C190.127 53.1407 190.729 53.0554 191.297 52.885C191.877 52.7032 192.388 52.4418 192.831 52.1009C193.286 51.7486 193.649 51.3225 193.922 50.8225H202.513C201.899 52.6407 200.928 54.2202 199.598 55.5611C198.28 56.8907 196.655 57.9248 194.723 58.6634C192.803 59.3907 190.627 59.7543 188.195 59.7543Z" fill="#2B4C93"/>
<path d="M220.648 24.3679L214.852 59.277H205.375L211.171 24.3679H220.648ZM239.457 33.0952L238.298 39.9134H221.048L222.207 33.0952H239.457ZM226.571 26.8225H235.98L231.992 50.8566C231.935 51.2202 231.946 51.527 232.026 51.777C232.105 52.0157 232.264 52.1975 232.503 52.3225C232.753 52.4361 233.082 52.4929 233.492 52.4929C233.764 52.4929 234.099 52.4588 234.497 52.3907C234.895 52.3111 235.196 52.2543 235.401 52.2202L235.673 58.8338C235.196 58.9702 234.554 59.1236 233.747 59.2941C232.952 59.4759 232.026 59.5952 230.969 59.652C228.764 59.7543 226.969 59.5213 225.582 58.9532C224.207 58.385 223.253 57.4986 222.719 56.2941C222.196 55.0782 222.105 53.5611 222.446 51.7429L226.571 26.8225Z" fill="#C01B1B"/>
</svg>
