<svg width="84" height="77" viewBox="0 0 84 77" fill="none" xmlns="http://www.w3.org/2000/svg">
<rect width="83.2162" height="76.184" rx="2" fill="#2B4C93"/>
<path d="M35.5656 22.0028C48.5964 22.0028 58.9433 31.8967 58.9435 43.8426C58.9435 55.7887 48.5966 65.6834 35.5656 65.6834C22.5346 65.6833 12.1876 55.7886 12.1876 43.8426C12.1878 31.8968 22.5348 22.0029 35.5656 22.0028Z" stroke="#C01B1B" stroke-width="4"/>
<path d="M63.7782 12.6669C63.429 10.4459 61.4087 8.91863 59.2657 9.25558L24.3439 14.7465C22.2009 15.0834 20.7468 17.1571 21.096 19.378C21.4452 21.599 23.4655 23.1263 25.6085 22.7894L56.6501 17.9086L61.7086 50.0801C62.0578 52.3011 64.0781 53.8284 66.2211 53.4914C68.3641 53.1545 69.8182 51.0809 69.469 48.8599L63.7782 12.6669ZM35.5658 47.9752L38.7566 50.3873L63.0888 15.6892L59.898 13.277L56.7072 10.8648L32.375 45.563L35.5658 47.9752Z" fill="#C01B1B"/>
<line y1="-1.5" x2="11.4354" y2="-1.5" transform="matrix(0.892443 0.45116 -0.424576 0.905392 25.4276 38.5447)" stroke="#C01B1B" stroke-width="3"/>
<ellipse cx="35.5657" cy="43.8429" rx="6.04241" ry="5.75092" fill="#C01B1B"/>
</svg>
