<svg width="144" height="132" viewBox="0 0 144 132" fill="none" xmlns="http://www.w3.org/2000/svg">
<rect width="143.773" height="131.175" rx="12" fill="#D9D9D9"/>
<path d="M68.8374 28.5932C98.3871 28.5932 121.566 47.7882 121.566 70.6069C121.566 93.4256 98.3871 112.621 68.8374 112.621C39.2879 112.62 16.1099 93.4255 16.1099 70.6069C16.1099 47.7883 39.288 28.5934 68.8374 28.5932Z" stroke="#C01B1B" stroke-width="4"/>
<path d="M125.477 13.5248C125.156 11.4676 123.029 10.0916 120.728 10.4513L83.2269 16.313C80.9256 16.6727 79.3207 18.632 79.6423 20.6891C79.9638 22.7463 82.09 24.1224 84.3913 23.7627L117.726 18.5523L122.384 48.3511C122.705 50.4083 124.831 51.7844 127.133 51.4247C129.434 51.065 131.039 49.1057 130.717 47.0485L125.477 13.5248ZM68.8379 78.2358L72.196 80.4092L124.668 16.3495L121.31 14.1761L117.952 12.0028L65.4798 76.0625L68.8379 78.2358Z" fill="#C01B1B"/>
<line y1="-1.5" x2="23.9808" y2="-1.5" transform="matrix(0.917737 0.397189 -0.48041 0.877044 46.975 60.8253)" stroke="#C01B1B" stroke-width="3"/>
<ellipse cx="68.8377" cy="70.6069" rx="13.0305" ry="10.6174" fill="#C01B1B"/>
</svg>
